<?xml version="1.0" encoding="utf-8"?>
<!-- Generator: Adobe Illustrator 24.0.3, SVG Export Plug-In . SVG Version: 6.00 Build 0)  -->
<svg version="1.1" id="Layer_11" xmlns="http://www.w3.org/2000/svg" xmlns:xlink="http://www.w3.org/1999/xlink" x="0px" y="0px"
	 viewBox="0 0 512 512" style="enable-background:new 0 0 512 512;" xml:space="preserve">
<style type="text/css">
	.st0{fill-rule:evenodd;clip-rule:evenodd;fill:#EDEDED;}
	.st1{fill-rule:evenodd;clip-rule:evenodd;fill:#C73737;}
	.st2{fill:#2E324F;}
	.st3{fill-rule:evenodd;clip-rule:evenodd;fill:#B02E2E;}
	.st4{fill-rule:evenodd;clip-rule:evenodd;fill:#DBB097;}
	.st5{fill-rule:evenodd;clip-rule:evenodd;fill:#F4C5A9;}
	.st6{fill-rule:evenodd;clip-rule:evenodd;fill:#2C5BA1;}
	.st7{fill-rule:evenodd;clip-rule:evenodd;fill:#FFFFFF;}
	.st8{fill:#41B536;}
	.st9{fill-rule:evenodd;clip-rule:evenodd;fill:#BF97CC;}
	.st10{fill:#CF4D52;}
	.st11{fill:#E8C94F;}
</style>
<g>
	<path class="st0" d="M256.08,413.45c86.62,0,157.38-70.76,157.38-157.37c0-86.78-70.76-157.54-157.38-157.54
		c-86.77,0-157.54,70.76-157.54,157.54C98.54,342.7,169.31,413.45,256.08,413.45L256.08,413.45z"/>
	<polygon class="st1" points="167.73,384.85 229.18,344 229.18,268.01 167.73,311.48 	"/>
	<path class="st2" d="M165.23,389.52v-79.33l66.44-47v82.16L165.23,389.52z M170.23,312.77v67.42l56.44-37.53v-69.82L170.23,312.77z
		"/>
	<polygon class="st3" points="341.12,382.4 279.67,341.55 279.67,265.56 341.12,309.03 	"/>
	<polygon class="st1" points="279.67,268.66 330.17,304.29 330.17,375.21 279.67,341.55 	"/>
	<path class="st2" d="M343.62,387.06l-66.44-44.17v-82.16l66.44,47.01V387.06z M282.17,340.21l56.44,37.53v-67.42l-56.44-39.93
		V340.21z"/>
	<path class="st4" d="M254.34,354.46c33.5,0,60.96-52.13,60.96-115.86c0-63.9-27.46-116.03-60.96-116.03
		c-33.5,0-60.79,52.13-60.79,116.03C193.55,302.33,220.84,354.46,254.34,354.46L254.34,354.46z"/>
	<path class="st5" d="M248.62,354.46c30.4,0,55.07-52.13,55.07-115.86c0-63.9-24.67-116.03-55.07-116.03
		c-30.23,0-55.07,52.13-55.07,116.03C193.55,302.33,218.39,354.46,248.62,354.46L248.62,354.46z"/>
	<path class="st2" d="M254.34,356.96c-34.9,0-63.29-53.1-63.29-118.36c0-31.31,6.43-60.83,18.12-83.13
		c11.96-22.82,28-35.39,45.17-35.39c34.99,0,63.46,53.17,63.46,118.53C317.8,303.86,289.33,356.96,254.34,356.96z M254.34,125.07
		c-15.23,0-29.7,11.62-40.75,32.71c-11.32,21.6-17.55,50.3-17.55,80.81c0,30.44,6.23,59.09,17.55,80.67
		c11.05,21.08,25.52,32.69,40.75,32.69c15.23,0,29.73-11.61,40.83-32.7c11.37-21.6,17.63-50.25,17.63-80.67
		c0-30.49-6.26-59.19-17.63-80.81C284.08,136.69,269.58,125.07,254.34,125.07z"/>
	<path class="st6" d="M292.91,148.71c-10.13,9.15-23.7,14.87-38.56,14.87c-14.71,0-28.27-5.72-38.41-14.87
		c10.46-16.34,23.86-26.14,38.41-26.14C269.05,122.57,282.45,132.37,292.91,148.71L292.91,148.71z"/>
	<path class="st2" d="M254.34,166.09c-14.77,0-29-5.51-40.08-15.52l-1.57-1.42l1.14-1.78c11.27-17.6,25.66-27.3,40.51-27.3
		c14.96,0,29.4,9.69,40.67,27.3l1.14,1.78l-1.57,1.42C283.5,160.57,269.21,166.09,254.34,166.09z M219.22,148.26
		c9.91,8.29,22.29,12.82,35.12,12.82c12.92,0,25.36-4.54,35.28-12.83c-10.23-15.18-22.39-23.19-35.28-23.19
		C241.75,125.07,229.34,133.29,219.22,148.26z"/>
	<path class="st7" d="M254.34,234.67c13.24,0,23.86-10.78,23.86-23.86c0-13.07-10.62-23.86-23.86-23.86
		c-13.07,0-23.7,10.78-23.7,23.86C230.65,223.89,241.27,234.67,254.34,234.67L254.34,234.67z"/>
	<path class="st2" d="M254.34,237.17c-14.44,0-26.2-11.83-26.2-26.36c0-14.53,11.75-26.36,26.2-26.36
		c14.53,0,26.36,11.82,26.36,26.36C280.7,225.35,268.88,237.17,254.34,237.17z M254.34,189.46c-11.69,0-21.2,9.58-21.2,21.36
		c0,11.78,9.51,21.36,21.2,21.36c11.78,0,21.36-9.58,21.36-21.36C275.7,199.04,266.12,189.46,254.34,189.46z"/>
	<rect x="218.23" y="340.07" class="st6" width="72.23" height="29.42"/>
	<path class="st2" d="M292.96,371.99h-77.23v-34.42h77.23V371.99z M220.73,366.99h67.23v-24.42h-67.23V366.99z"/>
	<path class="st1" d="M254.02,291.86L254.02,291.86c5.72,0,10.29,4.58,10.29,10.13v77.14c0,5.72-4.57,10.3-10.29,10.3l0,0
		c-5.55,0-10.13-4.58-10.13-10.3V302C243.88,296.44,248.46,291.86,254.02,291.86L254.02,291.86z"/>
	<path class="st2" d="M254.02,391.93c-6.97,0-12.63-5.74-12.63-12.8V302c0-6.97,5.67-12.63,12.63-12.63
		c7.05,0,12.79,5.67,12.79,12.63v77.14C266.81,386.19,261.07,391.93,254.02,391.93z M254.02,294.36c-4.21,0-7.63,3.42-7.63,7.63
		v77.14c0,4.3,3.42,7.8,7.63,7.8c4.37,0,7.79-3.42,7.79-7.8V302C261.81,297.79,258.31,294.36,254.02,294.36z"/>
	<path class="st8" d="M311.37,155.14c-1.38,0-2.5-1.12-2.5-2.5v-17.97c0-1.38,1.12-2.5,2.5-2.5c1.38,0,2.5,1.12,2.5,2.5v17.97
		C313.87,154.02,312.76,155.14,311.37,155.14z"/>
	<path class="st8" d="M320.36,146.15h-17.98c-1.38,0-2.5-1.12-2.5-2.5s1.12-2.5,2.5-2.5h17.98c1.38,0,2.5,1.12,2.5,2.5
		S321.75,146.15,320.36,146.15z"/>
	<path class="st9" d="M154.49,270.46c4.74,0,8.67-3.92,8.67-8.66c0-4.74-3.93-8.66-8.67-8.66c-4.74,0-8.66,3.92-8.66,8.66
		C145.83,266.54,149.75,270.46,154.49,270.46L154.49,270.46z"/>
	<path class="st10" d="M174.1,202.04c-0.5,0-1.01-0.15-1.44-0.46l-6.88-4.86l-6.72,4.84c-0.88,0.63-2.06,0.63-2.93-0.01
		c-0.87-0.64-1.24-1.76-0.91-2.79l2.55-7.92l-6.87-4.98c-0.88-0.64-1.24-1.76-0.91-2.8c0.33-1.03,1.29-1.73,2.38-1.73h8.47
		l2.54-7.91c0.33-1.03,1.29-1.73,2.38-1.73c1.09,0,2.05,0.7,2.38,1.73l2.54,7.91h8.48c1.08,0,2.04,0.7,2.38,1.73
		c0.33,1.03-0.03,2.16-0.91,2.8l-6.85,4.96l2.68,7.9c0.35,1.03,0,2.16-0.87,2.81C175.16,201.87,174.63,202.04,174.1,202.04z
		 M165.77,191.15c0.5,0,1.01,0.15,1.44,0.46l2.06,1.45l-0.8-2.37c-0.35-1.04,0.01-2.18,0.9-2.83l2.1-1.52h-2.6
		c-1.09,0-2.05-0.7-2.38-1.73l-0.72-2.24l-0.72,2.24c-0.33,1.03-1.29,1.73-2.38,1.73h-2.59l2.1,1.52c0.88,0.64,1.24,1.76,0.91,2.79
		l-0.77,2.4l1.99-1.44C164.74,191.31,165.25,191.15,165.77,191.15z"/>
	<path class="st11" d="M342.1,295.84c-0.51,0-1.02-0.15-1.45-0.47c-0.88-0.63-1.26-1.76-0.93-2.79l2.55-8.06l-6.84-4.83
		c-0.89-0.63-1.27-1.76-0.94-2.8c0.33-1.04,1.29-1.74,2.38-1.74h8.47l2.55-8.06c0.33-1.04,1.29-1.75,2.38-1.75h0
		c1.09,0,2.05,0.71,2.38,1.74l2.56,8.06h8.47c1.09,0,2.05,0.71,2.38,1.74c0.33,1.04-0.05,2.17-0.94,2.8l-6.82,4.81l2.68,8.04
		c0.34,1.03-0.02,2.16-0.89,2.81c-0.88,0.64-2.06,0.65-2.95,0.01l-6.86-4.97l-6.7,4.96C343.14,295.68,342.62,295.84,342.1,295.84z
		 M350.26,284.79c0.51,0,1.03,0.16,1.47,0.48l2.04,1.48l-0.81-2.42c-0.35-1.05,0.03-2.2,0.93-2.83l1.9-1.34h-2.42
		c-1.09,0-2.05-0.71-2.38-1.74l-0.72-2.28l-0.72,2.28c-0.33,1.04-1.29,1.75-2.38,1.75h-2.42l1.9,1.34c0.89,0.63,1.27,1.76,0.94,2.8
		l-0.78,2.45l1.97-1.46C349.22,284.96,349.74,284.79,350.26,284.79z"/>
</g>
</svg>
